<svg version="1.2" baseProfile="tiny-ps" xmlns="http://www.w3.org/2000/svg" viewBox="0 0 135 35" width="135" height="35">
	<title>logo-svg</title>
	<style>
		tspan { white-space:pre }
		.shp0 { fill: #cc3333 } 
	</style>
	<g id="Layer">
		<path id="Layer" class="shp0" d="M5.52 25.87L6.7 27.26C5.88 26.66 5.03 25.93 4.14 24.99C1.57 22.27 0 18.59 0 14.54C0 9.97 2 5.87 5.19 3.08L3.47 19.34C3.42 19.82 3.42 20.28 3.46 20.71C3.56 22.62 4.27 24.41 5.52 25.87Z" />
		<path id="Layer" class="shp0" d="M23.42 24.47L19.5 29.07C18.89 29.79 16.06 33.33 15.27 35L15.26 34.99C14.54 33.49 11.68 29.79 11.07 29.07L7.15 24.47C6.21 23.36 5.66 22 5.6 20.56C5.56 20.23 5.57 19.9 5.6 19.56L7.34 3.12C7.4 2.51 7.89 2.05 8.5 2.05C8.5 2.05 8.5 2.05 8.51 2.05L8.52 2.05C9.1 2.05 9.58 2.53 9.58 3.12L9.58 18.17C9.58 18.25 9.58 18.34 9.61 18.4C9.71 18.86 10.12 19.21 10.61 19.21C11.18 19.21 11.64 18.74 11.64 18.18L11.64 1.35C11.64 0.99 11.78 0.65 12.03 0.4C12.29 0.14 12.63 0 12.98 0C13.69 0.01 14.26 0.57 14.26 1.27L14.26 18.17C14.26 18.74 14.72 19.2 15.28 19.2C15.29 19.2 15.29 19.2 15.29 19.2C15.85 19.2 16.32 18.73 16.32 18.16L16.32 1.41C16.32 0.63 16.93 0.01 17.71 0.01C17.71 0.01 17.71 0.01 17.72 0.01L17.74 0.01C18.09 0.01 18.41 0.14 18.65 0.39C18.9 0.63 19.04 0.97 19.04 1.32L19.03 17.55L19.04 18.17C19.04 18.73 19.5 19.2 20.07 19.2L20.08 19.2C20.63 19.2 21.09 18.74 21.09 18.17L21.1 18.05L21.09 3.18C21.09 2.88 21.21 2.6 21.42 2.38C21.63 2.17 21.92 2.05 22.22 2.05C22.74 2.05 23.17 2.44 23.22 2.96L24.97 19.56C24.98 19.63 24.99 19.71 24.99 19.79C25.09 21.49 24.53 23.18 23.42 24.47Z" />
		<path id="Layer" class="shp0" d="M30.53 14.54C30.53 18.59 28.96 22.26 26.39 24.99C25.54 25.9 24.71 26.61 23.92 27.2L25.06 25.86C26.51 24.16 27.25 21.99 27.13 19.73C27.13 19.57 27.12 19.42 27.11 19.33L25.4 3.12C28.55 5.92 30.53 10 30.53 14.54Z" />
	</g>
	<g id="Layer">
		<path id="Layer" fill-rule="evenodd" class="shp0" d="M39.12 25.64L38.57 25.64L38.57 28.17C38.57 28.5 38.5 28.75 38.35 28.91C38.21 29.06 38.02 29.14 37.79 29.14C37.54 29.14 37.34 29.06 37.21 28.89C37.07 28.73 37 28.49 37 28.17L37 22.11C37 21.77 37.08 21.52 37.23 21.37C37.38 21.21 37.62 21.13 37.96 21.13L40.51 21.13C40.87 21.13 41.17 21.15 41.42 21.18C41.67 21.21 41.89 21.27 42.09 21.37C42.34 21.47 42.55 21.62 42.74 21.81C42.93 22 43.07 22.23 43.16 22.49C43.26 22.74 43.31 23.01 43.31 23.3C43.31 23.89 43.15 24.36 42.82 24.71C42.5 25.06 42 25.31 41.34 25.45C41.62 25.6 41.88 25.82 42.14 26.12C42.39 26.41 42.62 26.72 42.82 27.06C43.02 27.39 43.17 27.69 43.28 27.95C43.39 28.22 43.45 28.4 43.45 28.5C43.45 28.61 43.41 28.71 43.35 28.81C43.28 28.92 43.2 29 43.08 29.05C42.97 29.11 42.84 29.14 42.69 29.14C42.52 29.14 42.37 29.1 42.25 29.02C42.13 28.93 42.02 28.83 41.94 28.7C41.85 28.57 41.73 28.38 41.59 28.13L40.96 27.07C40.73 26.68 40.53 26.38 40.35 26.17C40.18 25.97 39.99 25.83 39.81 25.76C39.63 25.68 39.4 25.64 39.12 25.64ZM40.02 22.33L38.57 22.33L38.57 24.5L39.98 24.5C40.35 24.5 40.67 24.46 40.93 24.4C41.18 24.33 41.38 24.22 41.52 24.06C41.65 23.9 41.72 23.68 41.72 23.4C41.72 23.18 41.66 22.99 41.55 22.82C41.45 22.66 41.29 22.53 41.1 22.45C40.92 22.37 40.56 22.33 40.02 22.33Z" />
		<path id="Layer" class="shp0" d="M52.06 22.36L48.53 22.36L48.53 24.3L51.78 24.3C52.02 24.3 52.2 24.35 52.32 24.46C52.44 24.57 52.5 24.72 52.5 24.9C52.5 25.08 52.44 25.22 52.32 25.33C52.2 25.45 52.03 25.5 51.78 25.5L48.53 25.5L48.53 27.74L52.18 27.74C52.43 27.74 52.62 27.8 52.74 27.92C52.87 28.03 52.93 28.19 52.93 28.38C52.93 28.57 52.87 28.72 52.74 28.84C52.62 28.95 52.43 29.01 52.18 29.01L47.92 29.01C47.58 29.01 47.33 28.93 47.18 28.78C47.03 28.63 46.96 28.38 46.96 28.04L46.96 22.11C46.96 21.88 46.99 21.7 47.06 21.55C47.13 21.4 47.23 21.3 47.37 21.24C47.52 21.17 47.7 21.13 47.92 21.13L52.06 21.13C52.31 21.13 52.5 21.19 52.62 21.3C52.74 21.42 52.8 21.57 52.8 21.75C52.8 21.93 52.74 22.08 52.62 22.19C52.5 22.31 52.31 22.36 52.06 22.36Z" />
		<path id="Layer" class="shp0" d="M62.23 26.65C62.23 27.12 62.1 27.55 61.86 27.93C61.62 28.31 61.27 28.61 60.8 28.82C60.34 29.04 59.79 29.15 59.15 29.15C58.39 29.15 57.76 29 57.26 28.7C56.91 28.49 56.62 28.21 56.4 27.86C56.18 27.5 56.07 27.16 56.07 26.83C56.07 26.64 56.14 26.47 56.27 26.33C56.4 26.19 56.57 26.13 56.77 26.13C56.94 26.13 57.08 26.18 57.19 26.29C57.31 26.4 57.4 26.56 57.49 26.77C57.58 27.02 57.69 27.23 57.8 27.39C57.92 27.56 58.08 27.7 58.29 27.81C58.5 27.92 58.77 27.97 59.11 27.97C59.57 27.97 59.95 27.87 60.24 27.64C60.53 27.42 60.68 27.15 60.68 26.82C60.68 26.56 60.6 26.35 60.44 26.18C60.29 26.02 60.08 25.9 59.84 25.81C59.59 25.72 59.25 25.63 58.84 25.54C58.28 25.4 57.82 25.25 57.44 25.07C57.07 24.89 56.77 24.65 56.55 24.35C56.33 24.04 56.22 23.66 56.22 23.2C56.22 22.77 56.33 22.39 56.57 22.05C56.8 21.71 57.14 21.45 57.58 21.28C58.02 21.09 58.53 21 59.13 21C59.6 21 60.02 21.06 60.36 21.18C60.71 21.3 61 21.46 61.23 21.66C61.46 21.86 61.62 22.07 61.73 22.29C61.83 22.51 61.89 22.72 61.89 22.93C61.89 23.12 61.82 23.29 61.69 23.44C61.56 23.59 61.39 23.67 61.2 23.67C61.02 23.67 60.88 23.62 60.79 23.53C60.69 23.44 60.59 23.29 60.48 23.08C60.34 22.79 60.17 22.56 59.97 22.39C59.78 22.22 59.46 22.14 59.02 22.14C58.62 22.14 58.29 22.23 58.04 22.41C57.79 22.59 57.67 22.81 57.67 23.06C57.67 23.22 57.71 23.36 57.8 23.47C57.88 23.58 58 23.68 58.15 23.76C58.29 23.85 58.44 23.91 58.6 23.96C58.75 24 59 24.07 59.35 24.16C59.78 24.27 60.18 24.38 60.53 24.51C60.89 24.63 61.19 24.78 61.44 24.96C61.68 25.14 61.88 25.37 62.02 25.64C62.16 25.91 62.23 26.25 62.23 26.65Z" />
		<path id="Layer" class="shp0" d="M70.75 22.45L69.04 22.45L69.04 28.17C69.04 28.5 68.97 28.75 68.82 28.91C68.68 29.06 68.49 29.14 68.26 29.14C68.03 29.14 67.84 29.06 67.7 28.9C67.55 28.74 67.48 28.5 67.48 28.17L67.48 22.45L65.76 22.45C65.49 22.45 65.3 22.39 65.17 22.27C65.03 22.15 64.97 21.99 64.97 21.79C64.97 21.59 65.04 21.43 65.17 21.31C65.31 21.19 65.51 21.13 65.76 21.13L70.75 21.13C71.02 21.13 71.23 21.2 71.36 21.32C71.49 21.44 71.55 21.6 71.55 21.8C71.55 21.99 71.49 22.15 71.35 22.27C71.22 22.39 71.02 22.45 70.75 22.45Z" />
		<path id="Layer" fill-rule="evenodd" class="shp0" d="M78.92 28.12L78.55 27.13L75.4 27.13L75.04 28.14C74.89 28.54 74.77 28.8 74.67 28.94C74.56 29.08 74.4 29.15 74.16 29.15C73.97 29.15 73.79 29.07 73.64 28.92C73.49 28.78 73.41 28.61 73.41 28.42C73.41 28.32 73.43 28.21 73.47 28.09C73.5 27.98 73.56 27.82 73.64 27.61L75.62 22.5C75.68 22.35 75.75 22.18 75.82 21.97C75.9 21.77 75.99 21.59 76.08 21.46C76.17 21.32 76.29 21.21 76.43 21.13C76.58 21.04 76.76 21 76.97 21C77.19 21 77.37 21.04 77.52 21.13C77.67 21.21 77.79 21.32 77.87 21.45C77.96 21.59 78.04 21.73 78.1 21.88C78.16 22.03 78.24 22.24 78.34 22.49L80.36 27.57C80.52 27.96 80.6 28.24 80.6 28.41C80.6 28.6 80.52 28.76 80.37 28.92C80.22 29.07 80.04 29.15 79.83 29.15C79.71 29.15 79.6 29.12 79.51 29.08C79.42 29.03 79.35 28.97 79.29 28.9C79.23 28.82 79.17 28.7 79.1 28.54C79.03 28.38 78.97 28.24 78.92 28.12ZM75.82 25.93L78.13 25.93L76.96 22.68L75.82 25.93Z" />
		<path id="Layer" class="shp0" d="M83.51 25.75L83.51 21.97C83.51 21.65 83.58 21.41 83.73 21.24C83.87 21.08 84.06 21 84.29 21C84.53 21 84.73 21.08 84.87 21.24C85.01 21.4 85.08 21.64 85.08 21.97L85.08 25.84C85.08 26.28 85.13 26.65 85.23 26.94C85.32 27.24 85.5 27.47 85.74 27.63C85.99 27.8 86.33 27.88 86.78 27.88C87.39 27.88 87.83 27.71 88.08 27.38C88.33 27.05 88.46 26.55 88.46 25.87L88.46 21.97C88.46 21.64 88.53 21.4 88.67 21.24C88.81 21.08 89 21 89.24 21C89.47 21 89.66 21.08 89.81 21.24C89.95 21.4 90.03 21.64 90.03 21.97L90.03 25.76C90.03 26.37 89.97 26.89 89.85 27.3C89.73 27.71 89.51 28.07 89.18 28.38C88.9 28.65 88.57 28.84 88.2 28.96C87.83 29.08 87.39 29.15 86.89 29.15C86.29 29.15 85.78 29.08 85.35 28.95C84.92 28.82 84.57 28.62 84.3 28.34C84.03 28.07 83.83 27.72 83.7 27.29C83.58 26.86 83.51 26.35 83.51 25.75Z" />
		<path id="Layer" fill-rule="evenodd" class="shp0" d="M96 25.64L95.45 25.64L95.45 28.17C95.45 28.5 95.37 28.75 95.23 28.91C95.08 29.06 94.89 29.14 94.66 29.14C94.41 29.14 94.22 29.06 94.08 28.89C93.94 28.73 93.87 28.49 93.87 28.17L93.87 22.11C93.87 21.77 93.95 21.52 94.1 21.37C94.25 21.21 94.5 21.13 94.84 21.13L97.39 21.13C97.74 21.13 98.04 21.15 98.29 21.18C98.54 21.21 98.77 21.27 98.97 21.37C99.21 21.47 99.43 21.62 99.61 21.81C99.8 22 99.94 22.23 100.04 22.49C100.14 22.74 100.18 23.01 100.18 23.3C100.18 23.89 100.02 24.36 99.69 24.71C99.37 25.06 98.87 25.31 98.21 25.45C98.49 25.6 98.75 25.82 99.01 26.12C99.26 26.41 99.49 26.72 99.69 27.06C99.89 27.39 100.04 27.69 100.16 27.95C100.26 28.22 100.32 28.4 100.32 28.5C100.32 28.61 100.29 28.71 100.22 28.81C100.16 28.92 100.07 29 99.96 29.05C99.84 29.11 99.71 29.14 99.56 29.14C99.39 29.14 99.24 29.1 99.12 29.02C99 28.93 98.9 28.83 98.81 28.7C98.72 28.57 98.61 28.38 98.46 28.13L97.83 27.07C97.6 26.68 97.4 26.38 97.22 26.17C97.05 25.97 96.87 25.83 96.68 25.76C96.5 25.68 96.28 25.64 96 25.64ZM96.89 22.33L95.45 22.33L95.45 24.5L96.85 24.5C97.23 24.5 97.55 24.46 97.8 24.4C98.06 24.33 98.26 24.22 98.39 24.06C98.53 23.9 98.6 23.68 98.6 23.4C98.6 23.18 98.54 22.99 98.43 22.82C98.32 22.66 98.17 22.53 97.98 22.45C97.79 22.37 97.43 22.33 96.89 22.33Z" />
		<path id="Layer" fill-rule="evenodd" class="shp0" d="M108.79 28.12L108.42 27.13L105.27 27.13L104.9 28.14C104.76 28.54 104.63 28.8 104.53 28.94C104.43 29.08 104.26 29.15 104.03 29.15C103.83 29.15 103.66 29.07 103.51 28.92C103.36 28.78 103.28 28.61 103.28 28.42C103.28 28.32 103.3 28.21 103.33 28.09C103.37 27.98 103.43 27.82 103.51 27.61L105.49 22.5C105.55 22.35 105.61 22.18 105.69 21.97C105.77 21.77 105.86 21.59 105.95 21.46C106.04 21.32 106.15 21.21 106.3 21.13C106.45 21.04 106.63 21 106.84 21C107.06 21 107.24 21.04 107.39 21.13C107.54 21.21 107.65 21.32 107.74 21.45C107.83 21.59 107.91 21.73 107.97 21.88C108.03 22.03 108.11 22.24 108.2 22.49L110.23 27.57C110.38 27.96 110.46 28.24 110.46 28.41C110.46 28.6 110.39 28.76 110.24 28.92C110.09 29.07 109.91 29.15 109.7 29.15C109.57 29.15 109.47 29.12 109.38 29.08C109.29 29.03 109.22 28.97 109.16 28.9C109.1 28.82 109.03 28.7 108.97 28.54C108.9 28.38 108.84 28.24 108.79 28.12ZM105.68 25.93L108 25.93L106.83 22.68L105.68 25.93Z" />
		<path id="Layer" class="shp0" d="M115.83 21.96L118.84 26.6L118.84 21.91C118.84 21.61 118.91 21.38 119.04 21.23C119.17 21.08 119.34 21 119.56 21C119.78 21 119.96 21.08 120.09 21.23C120.22 21.38 120.28 21.61 120.28 21.91L120.28 28.11C120.28 28.8 120 29.14 119.44 29.14C119.3 29.14 119.17 29.12 119.06 29.08C118.94 29.04 118.84 28.98 118.74 28.89C118.64 28.8 118.55 28.69 118.47 28.57C118.38 28.45 118.3 28.33 118.21 28.21L115.27 23.62L115.27 28.23C115.27 28.53 115.2 28.76 115.06 28.91C114.93 29.07 114.75 29.15 114.53 29.15C114.31 29.15 114.14 29.07 114 28.91C113.87 28.76 113.8 28.53 113.8 28.23L113.8 22.16C113.8 21.9 113.83 21.7 113.89 21.55C113.95 21.39 114.06 21.26 114.22 21.16C114.38 21.05 114.54 21 114.72 21C114.86 21 114.98 21.02 115.08 21.07C115.18 21.12 115.27 21.18 115.35 21.26C115.42 21.34 115.5 21.44 115.58 21.57C115.66 21.69 115.74 21.82 115.83 21.96Z" />
		<path id="Layer" class="shp0" d="M129.2 22.45L127.49 22.45L127.49 28.17C127.49 28.5 127.41 28.75 127.27 28.91C127.12 29.06 126.94 29.14 126.71 29.14C126.48 29.14 126.29 29.06 126.14 28.9C126 28.74 125.92 28.5 125.92 28.17L125.92 22.45L124.21 22.45C123.94 22.45 123.74 22.39 123.61 22.27C123.48 22.15 123.42 21.99 123.42 21.79C123.42 21.59 123.48 21.43 123.62 21.31C123.76 21.19 123.95 21.13 124.21 21.13L129.2 21.13C129.47 21.13 129.67 21.2 129.8 21.32C129.93 21.44 130 21.6 130 21.8C130 21.99 129.93 22.15 129.8 22.27C129.67 22.39 129.46 22.45 129.2 22.45Z" />
	</g>
	<g id="Layer">
		<path id="Eatiz" fill-rule="evenodd" class="shp0" d="M37.03 14.48L39.24 14.49L39.25 6.55L37.04 6.55L37.04 4.15L53.67 4.19L53.66 9.2L50.73 9.19L50.73 6.58L43.66 6.56L43.66 9.26L48.51 9.27L48.51 11.67L43.65 11.66L43.65 14.5L50.72 14.51L50.72 12.07L53.66 12.08L53.66 17.11L37.03 17.07L37.03 14.48ZM55.79 14.53L58.47 14.53L65.08 4.09L68.25 4.1L74.27 14.57L75.95 14.58L75.95 17.17L68.05 17.15L68.05 14.56L69.08 14.56L68.61 13.66L62.94 13.65L62.41 14.54L63.69 14.55L63.69 17.14L55.79 17.12L55.79 14.53ZM67.35 11.28L65.99 8.66L64.39 11.27L67.35 11.28ZM77.24 4.25L96.02 4.29L96.02 9.3L93.08 9.29L93.08 6.69L88.82 6.67L88.82 14.61L91.63 14.62L91.62 17.2L81.68 17.18L81.68 14.59L84.43 14.6L84.44 6.66L80.18 6.65L80.17 9.26L77.24 9.26L77.24 4.25ZM97.72 14.63L99.93 14.64L99.94 6.7L97.72 6.7L97.73 4.3L106.65 4.32L106.65 6.72L104.35 6.71L104.34 14.65L106.64 14.65L106.64 17.24L97.71 17.22L97.72 14.63ZM108.34 14.87L119.42 6.75L111.86 6.73L111.86 9.34L108.92 9.33L108.93 4.32L125.56 4.36L125.55 6.54L115.18 14.67L123.31 14.69L123.31 12.25L126.25 12.26L126.25 17.29L108.34 17.25L108.34 14.87Z" />
	</g>
</svg>